# xmcd
#
# Track frame offsets:
#	150
#	22235
#	40150
#	57890
#	79767
#	99410
#	119877
#	144340
#	162280
#	177390
#
# Disc length: 2470
#
# Revision: 0
# Processed by: cddbd v1.5.2PL0 Copyright (c) Steve Scherf et al.
# Submitted via: Broken X Disk Manager 4.07.2267
#
DISCID=8709a40a
DTITLE=The Rolling Stones - Exile On Main St. (2009 Remaster) CD2
DYEAR=2009
DGENRE=Rock
TTITLE0=Pass The Wine (Sophia Loren)
TTITLE1=Plundered My Soul
TTITLE2=I'm Not Signifying
TTITLE3=Following The River
TTITLE4=Dancing In The Light
TTITLE5=So Divine (Aladdin Story)
TTITLE6=Loving Cup (Alternate Take)
TTITLE7=Soul Survivor (Alternate Take)
TTITLE8=Good Time Women
TTITLE9=Title 5
EXTD=
EXTT0=
EXTT1=
EXTT2=
EXTT3=
EXTT4=
EXTT5=
EXTT6=
EXTT7=
EXTT8=
EXTT9=
PLAYORDER=
